<svg width="350" height="350" viewBox="0 0 350 350" fill="none" xmlns="http://www.w3.org/2000/svg">
<rect width="350" height="350" rx="50" fill="#0E62DE"/>
<path d="M252.284 138.956L249.835 144.589C249.453 145.506 248.807 146.29 247.98 146.841C247.153 147.392 246.181 147.686 245.186 147.686C244.192 147.686 243.22 147.392 242.393 146.841C241.566 146.29 240.92 145.506 240.538 144.589L238.089 138.956C233.783 128.99 225.898 121 215.989 116.561L208.433 113.187C207.517 112.766 206.74 112.09 206.196 111.241C205.652 110.391 205.362 109.404 205.362 108.395C205.362 107.386 205.652 106.399 206.196 105.549C206.74 104.7 207.517 104.024 208.433 103.603L215.571 100.428C225.729 95.863 233.749 87.5772 237.979 77.277L240.498 71.1957C240.868 70.2537 241.513 69.445 242.349 68.8749C243.186 68.3049 244.174 68 245.186 68C246.199 68 247.187 68.3049 248.024 68.8749C248.86 69.445 249.505 70.2537 249.875 71.1957L252.394 77.267C256.62 87.5691 264.636 95.8586 274.792 100.428L281.94 103.613C282.854 104.035 283.627 104.711 284.17 105.559C284.712 106.407 285 107.393 285 108.4C285 109.407 284.712 110.393 284.17 111.241C283.627 112.089 282.854 112.765 281.94 113.187L274.374 116.551C264.467 120.994 256.585 128.988 252.284 138.956ZM245.186 167.541C251.943 167.546 258.652 166.405 265.026 164.167C265.073 165.295 265.096 166.419 265.096 167.541C265.096 188.658 256.706 208.911 241.771 223.843C226.835 238.776 206.579 247.165 185.458 247.165V282C135.684 262.094 66 232.235 66 167.541C66 146.423 74.3905 126.17 89.3256 111.238C104.261 96.3057 124.517 87.9167 145.638 87.9167H185.458C186.586 87.9167 187.711 87.94 188.832 87.9864C185.66 96.9931 184.694 106.629 186.016 116.086C187.337 125.543 190.908 134.545 196.428 142.338C201.948 150.13 209.256 156.486 217.74 160.871C226.224 165.256 235.636 167.543 245.186 167.541Z" fill="#FFD618"/>
</svg>
